<svg width="75" height="75" viewBox="0 0 75 75" fill="none" xmlns="http://www.w3.org/2000/svg">
<g clip-path="url(#clip0)">
<path d="M63.0682 44.3062C58.3688 44.3062 54.5455 48.1312 54.5455 52.8324V59.6523H44.3182V32.6915C45.3563 31.7131 46.0228 30.3153 46.0228 28.7693V23.8449C46.0228 21.0239 43.7284 18.7295 40.9091 18.7295H35.7955V16.8545C38.9455 16.2545 40.9091 13.9722 40.9091 10.6807C40.9091 7.06534 36.2983 1.61079 35.3745 0.553975C34.725 -0.185798 33.4568 -0.185798 32.8074 0.553975C31.8835 1.61079 27.2728 7.06534 27.2728 10.6807C27.2728 14.2841 29.6932 16.2426 32.3864 16.8205V18.7295H27.2728C24.4534 18.7295 22.1591 21.0239 22.1591 23.8449V34.0756C22.1591 35.458 22.6978 36.7466 23.6472 37.6705C23.7137 37.7386 23.7938 37.7881 23.8637 37.8511V59.6523H14.5483C12.1671 59.654 10.2273 61.592 10.2273 63.9767C10.2273 64.8324 10.4779 65.6625 10.9534 66.375L13.6364 70.4011V73.2954C13.6364 74.2364 14.3983 75 15.3409 75H52.8409C53.7835 75 54.5455 74.2364 54.5455 73.2954V70.4011L57.2284 66.375C57.704 65.6608 57.9546 64.8324 57.9546 63.9767V52.8324C57.9546 50.0114 60.2489 47.717 63.0682 47.717C64.0108 47.717 64.7728 46.9534 64.7728 46.0125C64.7728 45.0716 64.0108 44.3062 63.0682 44.3062ZM30.6818 10.6807C30.6818 9.30852 32.4068 6.5625 34.0909 4.37045C35.775 6.56079 37.5 9.30852 37.5 10.6807C37.5 11.4051 37.5 13.6142 34.0909 13.6142C33.5216 13.6142 30.6818 13.4727 30.6818 10.6807ZM25.5682 23.8449C25.5682 22.9057 26.3318 22.1403 27.2728 22.1403H40.9091C41.85 22.1403 42.6137 22.9057 42.6137 23.8449V28.7693C42.6137 29.7392 41.9199 30.5864 41.0676 30.6597C40.546 30.7176 40.0756 30.5318 39.6938 30.1449C39.3801 29.8347 39.2046 29.4153 39.2046 28.9602C39.2046 27.4551 38.5415 26.0318 37.3892 25.0551C36.2352 24.0818 34.7182 23.671 33.2267 23.9165C30.8029 24.3256 28.9773 26.5824 28.9773 29.1682V33.8847C28.9773 34.8545 28.2835 35.7017 27.4313 35.775C26.908 35.8278 26.4375 35.6472 26.0574 35.2602C25.7438 34.9517 25.5682 34.5307 25.5682 34.0756V23.8449ZM27.2728 39.1909C27.2745 39.1909 27.2745 39.1909 27.2762 39.1909C27.4228 39.1909 27.571 39.1858 27.7193 39.1722C30.3358 38.9506 32.3864 36.6273 32.3864 33.8847V29.1682C32.3864 28.2426 33.0034 27.4142 33.7909 27.2812C34.471 27.1619 34.9603 27.4687 35.1853 27.6597C35.5739 27.9869 35.7955 28.4608 35.7955 28.9602C35.7955 30.3426 36.3341 31.6312 37.2835 32.5551C38.2347 33.5335 39.537 34.0415 40.9091 34.0466V59.654H27.2728V39.1909ZM54.3921 64.4829L51.4227 68.9386C51.237 69.2182 51.1364 69.5489 51.1364 69.8847V71.5909H17.0455V69.8847C17.0455 69.5489 16.9449 69.2182 16.7591 68.9386L13.7898 64.4829C13.6892 64.3312 13.6364 64.1574 13.6364 63.9767C13.6364 63.4739 14.0455 63.0648 14.5483 63.0648H53.6335C54.1364 63.0648 54.5455 63.4739 54.5455 63.9767C54.5455 64.1574 54.4926 64.3312 54.3921 64.4829Z" fill="#486173"/>
</g>
<defs>
<clipPath id="clip0">
<rect width="75" height="75" fill="white"/>
</clipPath>
</defs>
</svg>
