<svg width="75" height="75" viewBox="0 0 75 75" fill="none" xmlns="http://www.w3.org/2000/svg">
<path d="M59.25 37.2499C59.25 38.2499 60 39.2499 61.25 39.2499C62.5 39.2499 63.25 38.4999 63.25 37.2499C63.25 23.4999 52 12.2499 38.25 12.2499C37.25 12.2499 36.25 12.9999 36.25 14.2499C36.25 15.4999 37 16.2499 38.25 16.2499C49.75 15.9999 59.25 25.4999 59.25 37.2499ZM36.25 24.2499C36.25 25.2499 37 26.2499 38.25 26.2499C44.25 26.2499 49 30.9999 49 36.9999C49 37.9999 49.75 38.9999 51 38.9999C52.25 38.9999 53 38.2499 53 36.9999C53 28.9999 46.5 22.4999 38.5 22.4999C37 22.4999 36.25 23.2499 36.25 24.2499ZM38 0.499878C37 0.499878 36 1.24988 36 2.49988C36 3.74988 36.75 4.49988 38 4.49988C56 4.49988 70.75 19.2499 70.75 37.2499C70.75 38.2499 71.5 39.2499 72.75 39.2499C74 39.2499 74.75 38.4999 74.75 37.2499C74.5 16.9999 58.25 0.499878 38 0.499878ZM48.5 44.2499C48.25 43.9999 47.75 43.7499 47.25 43.7499C46.75 43.7499 46.25 43.9999 46 44.2499L42 48.2499C40.5 49.7499 38 49.7499 36.5 48.2499L27.25 39.7499C25.75 38.2499 25.75 35.7499 27.25 34.2499L31.75 29.7499C32.5 28.9999 32.5 27.7499 31.75 26.9999L13.25 8.74988C13 8.49988 12.5 8.24988 12 8.24988C11.5 8.24988 11 8.49988 10.75 8.74988C10.5 8.99988 4.75 14.7499 3.5 16.2499C1.19209e-07 19.7499 -0.5 26.9999 2 33.2499C7.5 46.9999 25.75 63.7499 41 72.9999C42.25 73.7499 45.25 74.4999 48.25 74.4999C51 74.4999 55 73.9999 58.5 70.9999C61.75 68.2499 65.5 64.2499 65.75 63.9999C66.5 63.2499 66.5 61.9999 65.75 61.4999L48.5 44.2499ZM56 67.9999C53.5 70.2499 50.5 70.4999 48.25 70.4999C45.5 70.4999 43.25 69.7499 43 69.4999C25.75 59.2499 10 43.4999 5.5 31.7499C3.5 26.4999 4.25 20.7499 6 18.7499C7 17.7499 10 14.7499 12 12.7499L27.5 28.2499L24.25 31.4999C21.25 34.4999 21.25 39.2499 24.25 42.2499L33.5 50.7499C36.25 53.4999 41.25 53.4999 44.25 50.7499L47 47.9999L61.5 62.4999C60.25 64.2499 58 66.4999 56 67.9999Z" fill="#486173"/>
</svg>
