<svg width="75" height="75" viewBox="0 0 75 75" fill="none" xmlns="http://www.w3.org/2000/svg">
<g clip-path="url(#clip0)">
<path d="M73.0653 40.0367C71.6454 37.5839 71.267 34.7237 72.0017 31.9862L72.5539 29.922C72.6715 29.4839 72.6085 29.0168 72.3818 28.6265C72.1551 28.2328 71.7801 27.9481 71.3437 27.8322L69.2778 27.285C66.5761 26.5691 64.2238 24.7674 62.7647 22.243C62.2482 21.4657 61.2051 21.2492 60.421 21.7572L52.8034 26.6833C52.2562 27.0362 51.588 27.0515 51.0204 26.7191C50.7494 26.5623 50.1272 26.0953 50.1801 25.1543L51.1346 6.87309C51.1636 6.33275 50.9335 5.81287 50.5159 5.46855C50.0983 5.12423 49.5477 4.99639 49.0176 5.13105C45.5403 6.00207 41.9096 4.70832 39.7602 1.83957L38.8636 0.642982C38.221 -0.2127 36.7789 -0.2127 36.1363 0.642982L35.2397 1.84128C33.0903 4.70832 29.4579 6.00207 25.9823 5.13105C25.4522 4.9981 24.9017 5.12423 24.484 5.46855C24.0664 5.81116 23.8363 6.33275 23.8653 6.87309L24.8215 25.1612C24.8727 26.0953 24.2505 26.564 23.9795 26.7208C23.4136 27.0515 22.7454 27.0379 22.2 26.6867L14.5789 21.7589C14.1835 21.5032 13.7011 21.4265 13.2528 21.5356C12.7977 21.6447 12.4073 21.9379 12.1738 22.3435C10.7761 24.7691 8.42382 26.5708 5.72211 27.2867L3.6562 27.8339C3.21813 27.9498 2.84313 28.2345 2.61813 28.6282C2.39143 29.0203 2.32836 29.4856 2.44597 29.9237L2.99825 31.9879C3.73291 34.7254 3.3545 37.5856 1.93461 40.0384C1.68916 40.4595 1.63802 40.964 1.79143 41.4276C1.94313 41.8896 2.28575 42.2646 2.73234 42.4589L23.0471 51.2577C23.85 51.6072 24.2642 52.4935 24.0051 53.3254L22.2323 59.1583C22.0755 59.6748 22.1727 60.2356 22.4931 60.6702C22.8136 61.1032 23.3232 61.3606 23.8636 61.3606H32.3863C34.2664 61.3606 35.7954 62.8913 35.7954 64.7714V73.2992C35.7954 74.2384 36.5573 75.0004 37.5 75.0004C38.4426 75.0004 39.2045 74.2384 39.2045 73.2941V64.7663C39.2045 62.8862 40.7335 61.3555 42.6136 61.3555H51.1363C51.675 61.3555 52.1846 61.0998 52.5068 60.6651C52.8272 60.2305 52.9244 59.6697 52.7676 59.1532L50.9948 53.3202C50.9931 53.3185 50.9931 53.3151 50.9914 53.3134C50.7375 52.4884 51.1517 51.6038 51.9494 51.2543L72.2676 42.4538C72.7142 42.2612 73.0568 41.8845 73.2085 41.4225C73.3619 40.964 73.3108 40.4595 73.0653 40.0367ZM50.5926 48.1282C48.1977 49.1748 46.9704 51.8322 47.734 54.3174L48.8352 57.9464H42.6136C41.3642 57.9464 40.2119 58.3146 39.2045 58.9043V47.0629L51.8983 40.7117C52.7403 40.2907 53.0812 39.2663 52.6602 38.4242C52.2375 37.5822 51.2147 37.243 50.3727 37.6623L39.2045 43.2481V23.8367C39.2045 22.8941 38.4426 22.1305 37.5 22.1305C36.5573 22.1305 35.7954 22.8924 35.7954 23.8367V43.2481L24.6255 37.6606C23.7835 37.243 22.7607 37.5805 22.338 38.4225C21.917 39.2646 22.2579 40.289 23.1 40.71L35.7954 47.0629V58.9043C34.788 58.3146 33.6357 57.9464 32.3863 57.9464H26.1647L27.2659 54.3225C28.0346 51.8373 26.8056 49.1748 24.4056 48.1265L5.72552 40.0367C6.88973 37.2123 7.09427 34.1032 6.28973 31.1032L6.18063 30.6924L6.59313 30.5833C9.61188 29.7839 12.2982 27.96 14.1409 25.5362L20.3522 29.5521C21.975 30.5953 24.0204 30.6413 25.6977 29.6663C27.3647 28.693 28.3329 26.8947 28.2255 24.9771L27.3801 8.78389C31.2272 9.02594 34.9738 7.45094 37.5017 4.47139C40.0295 7.45264 43.7761 9.02594 47.6215 8.78389L46.7778 24.9703C46.6704 26.8947 47.6386 28.6947 49.3039 29.6663C50.9812 30.6447 53.025 30.597 54.6528 29.5504L60.8659 25.5328C62.7409 27.9839 65.4102 29.7873 68.4085 30.5816L68.821 30.6907L68.7119 31.1015C67.9073 34.1015 68.1119 37.2106 69.2761 40.035L50.5926 48.1282Z" fill="#486173"/>
</g>
<defs>
<clipPath id="clip0">
<rect width="75" height="75" fill="white"/>
</clipPath>
</defs>
</svg>
