<svg width="75" height="75" viewBox="0 0 75 75" fill="none" xmlns="http://www.w3.org/2000/svg">
<path d="M35.7954 44.3182C34.8528 44.3182 34.0908 43.5562 34.0908 42.6136V37.5C34.0908 36.5574 34.8528 35.7954 35.7954 35.7954C36.738 35.7954 37.4999 36.5574 37.4999 37.5V42.6136C37.4999 43.5562 36.738 44.3182 35.7954 44.3182Z" fill="#486173"/>
<path d="M35.7954 51.1364C34.8528 51.1364 34.0908 50.3744 34.0908 49.4318V47.7273C34.0908 46.7847 34.8528 46.0227 35.7954 46.0227C36.738 46.0227 37.4999 46.7847 37.4999 47.7273V49.4318C37.4999 50.3744 36.738 51.1364 35.7954 51.1364Z" fill="#486173"/>
<path d="M51.1364 18.75H47.7273V15.3409C47.7273 14.3983 46.9654 13.6364 46.0228 13.6364C45.0802 13.6364 44.3182 14.3983 44.3182 15.3409V18.75H40.9091C39.9665 18.75 39.2046 19.5119 39.2046 20.4545C39.2046 21.3971 39.9665 22.1591 40.9091 22.1591H44.3182V35.7954C44.3182 36.7381 45.0802 37.5 46.0228 37.5C46.9654 37.5 47.7273 36.7381 47.7273 35.7954V22.1591H51.1364C52.079 22.1591 52.841 21.3971 52.841 20.4545C52.841 19.5119 52.079 18.75 51.1364 18.75Z" fill="#486173"/>
<path d="M67.1301 18.7261L62.0522 3.49432C61.3551 1.40455 59.4068 0 57.2028 0H22.9107C20.705 0 18.755 1.40455 18.0613 3.49602L12.9835 18.7278C12.2863 20.821 11.9318 23.0028 11.9318 25.2102C11.9318 26.6966 12.0971 28.1932 12.4193 29.6557L16.9823 50.1869C14.013 51.5216 11.9318 54.4943 11.9318 57.9545C11.9318 58.1864 11.9437 58.4182 11.9675 58.6551C8.90618 59.9813 6.81812 63.046 6.81812 66.4773C6.81812 71.1767 10.6414 75 15.3408 75H53.5159C55.9295 75 57.9835 73.3534 58.5102 70.9943L67.696 29.6574C68.0164 28.2017 68.1818 26.7051 68.1818 25.2102C68.1818 22.9994 67.8272 20.8176 67.1301 18.7261ZM10.2272 66.4773C10.2272 64.0773 11.93 61.9739 14.2772 61.4778C14.7391 61.379 15.1397 61.0943 15.3835 60.6903C15.6272 60.2881 15.6937 59.8006 15.5624 59.3455C15.4124 58.8068 15.3408 58.3653 15.3408 57.9545C15.3408 56.1307 16.3073 54.5386 17.7477 53.6335L21.6068 70.9943C21.6528 71.2006 21.7244 71.3949 21.7925 71.5909H15.3408C12.5215 71.5909 10.2272 69.2966 10.2272 66.4773ZM26.5977 71.5909C25.7914 71.5909 25.1079 71.042 24.934 70.2562L15.7465 28.9193C15.4772 27.6972 15.3408 26.4494 15.3408 25.2102C15.3408 23.3693 15.6357 21.5523 16.2187 19.8051L21.2965 4.57159C21.5283 3.87614 22.1778 3.40909 22.9107 3.40909H30.0306C30.0204 3.43977 30.0033 3.46534 29.9948 3.49602L24.917 18.7278C24.8795 18.8403 24.8556 18.9563 24.8215 19.0688C23.2619 19.7011 22.159 21.2267 22.159 23.0114C22.159 23.5483 22.2698 24.0563 22.4505 24.5284C21.2556 25.2852 20.4545 26.608 20.4545 28.125C20.4545 29.642 21.2556 30.9648 22.4505 31.7216C22.2698 32.1938 22.159 32.7017 22.159 33.2386C22.159 35.475 23.8943 37.2938 26.0863 37.4659L33.5369 70.9943C33.5829 71.2006 33.6545 71.3949 33.7227 71.5909H26.5977ZM24.7158 28.9773C24.2471 28.9773 23.8636 28.5938 23.8636 28.125C23.8636 27.6562 24.2471 27.2727 24.7158 27.2727H31.534C32.0028 27.2727 32.3863 27.6562 32.3863 28.125C32.3863 28.5938 32.0028 28.9773 31.534 28.9773H24.7158ZM30.6818 33.2386C30.6818 33.7074 30.2982 34.0909 29.8295 34.0909H26.4204C25.9516 34.0909 25.5681 33.7074 25.5681 33.2386C25.5681 32.7699 25.9516 32.3864 26.4204 32.3864H29.8295C30.2982 32.3864 30.6818 32.7699 30.6818 33.2386ZM29.8295 23.8636H26.4204C25.9516 23.8636 25.5681 23.4801 25.5681 23.0114C25.5681 22.5426 25.9516 22.1591 26.4204 22.1591H29.8295C30.2982 22.1591 30.6818 22.5426 30.6818 23.0114C30.6818 23.4801 30.2982 23.8636 29.8295 23.8636ZM64.3653 28.9176L55.1812 70.2545C55.0056 71.042 54.3204 71.5909 53.5159 71.5909H38.5312C37.7249 71.5909 37.0414 71.042 36.8676 70.2562L29.5874 37.5H29.8295C32.1801 37.5 34.0908 35.5892 34.0908 33.2386C34.0908 32.7017 33.9801 32.1938 33.7994 31.7216C34.9943 30.9648 35.7954 29.642 35.7954 28.125C35.7954 26.608 34.9943 25.2852 33.7994 24.5284C33.9801 24.0563 34.0908 23.5483 34.0908 23.0114C34.0908 20.6608 32.1801 18.75 29.8295 18.75H28.5016L33.2283 4.5733C33.4602 3.87614 34.1096 3.40909 34.8426 3.40909H57.2011C57.9357 3.40909 58.5852 3.87614 58.8187 4.575L63.8965 19.8068C64.4778 21.5489 64.7727 23.3659 64.7727 25.2102C64.7727 26.4563 64.6363 27.704 64.3653 28.9176Z" fill="#486173"/>
</svg>
