<svg width="204" height="60" viewBox="0 0 204 60" fill="none" xmlns="http://www.w3.org/2000/svg">
<path d="M22.1521 6.12134C21.9563 8.10588 21.8585 9.89483 21.8585 11.4881C21.8585 12.8856 21.9004 14.0317 21.9843 14.9261H21.0192C20.7955 12.7739 20.5157 11.1806 20.1802 10.1464C19.8445 9.08425 19.257 8.31553 18.4179 7.84036C17.5787 7.33723 16.2921 7.08567 14.5578 7.08567H11.9145C10.9075 7.08567 10.1662 7.16953 9.69073 7.33723C9.24317 7.47697 8.93551 7.78449 8.76768 8.25964C8.59985 8.7348 8.51593 9.50353 8.51593 10.5657V20.8799H11.5788C12.5578 20.8799 13.3131 20.6563 13.8446 20.209C14.3761 19.7339 14.7257 19.1888 14.8935 18.5739C15.0893 17.931 15.2431 17.1343 15.355 16.184L15.4808 15.3455H16.4459C16.3619 16.5194 16.32 17.8332 16.32 19.2866V21.2992C16.32 22.7248 16.404 24.7093 16.5718 27.2529H15.6068C15.5788 27.0572 15.4949 26.3863 15.355 25.2403C15.2151 24.0664 14.8235 23.1859 14.1802 22.5989C13.5648 22.012 12.6978 21.7185 11.5788 21.7185H8.51593V31.3618C8.51593 32.4239 8.62783 33.1927 8.85159 33.6679C9.07534 34.143 9.46699 34.4644 10.0264 34.6322C10.5858 34.7999 11.4949 34.9117 12.7536 34.9676V35.8061C11.2991 35.7223 9.24317 35.6803 6.58589 35.6803C4.18033 35.6803 2.39014 35.7223 1.21533 35.8061V34.9676C2.22231 34.9117 2.94957 34.7999 3.39711 34.6322C3.87263 34.4644 4.19431 34.143 4.36214 33.6679C4.52997 33.1927 4.61388 32.4239 4.61388 31.3618V10.5657C4.61388 9.50353 4.52997 8.7348 4.36214 8.25964C4.19431 7.78449 3.87263 7.46302 3.39711 7.29531C2.94957 7.1276 2.22231 7.01579 1.21533 6.95988V6.12134C3.95655 6.20519 8.01244 6.24712 13.383 6.24712C17.4948 6.24712 20.4179 6.20519 22.1521 6.12134Z" fill="#486173"/>
<path d="M66.7249 30.8589C66.7249 32.3123 66.8227 33.9615 67.0185 35.8063C65.2005 35.7224 62.1374 35.6805 57.8299 35.6805C52.6551 35.6805 48.7392 35.7224 46.0818 35.8063V34.9678C47.0888 34.9118 47.816 34.8 48.2636 34.6322C48.7392 34.4646 49.0608 34.1431 49.2286 33.668C49.3965 33.1929 49.4804 32.4241 49.4804 31.3619V14.7585C49.4804 13.6964 49.3965 12.9277 49.2286 12.4526C49.0608 11.9774 48.7392 11.6559 48.2636 11.4882C47.816 11.3205 47.0888 11.2086 46.0818 11.1528V10.3142C48.7392 10.3981 52.6551 10.44 57.8299 10.44C61.7459 10.44 64.5291 10.3981 66.1795 10.3142C65.9836 11.9913 65.8858 13.5007 65.8858 14.8424C65.8858 15.9326 65.9277 16.799 66.0116 17.4419H65.0466C64.8508 15.1499 64.3613 13.5566 63.5781 12.6622C62.8229 11.7398 61.5781 11.2786 59.8438 11.2786H56.781C55.774 11.2786 55.0327 11.3624 54.5572 11.5301C54.1096 11.6699 53.802 11.9774 53.6342 12.4526C53.4663 12.9277 53.3824 13.6964 53.3824 14.7585V22.5571H56.8648C57.76 22.5571 58.4453 22.3335 58.9208 21.8863C59.3963 21.4111 59.718 20.9079 59.8859 20.3769C60.0537 19.8179 60.2075 19.1191 60.3474 18.2805H61.3124C61.2285 19.2309 61.1865 20.2651 61.1865 21.3831V22.9763C61.1865 24.0665 61.2704 25.6318 61.4382 27.6722H60.4732C60.3054 26.3306 59.9837 25.2824 59.5082 24.5278C59.0326 23.773 58.1515 23.3957 56.8648 23.3957H53.3824V31.3619C53.3824 32.4241 53.4663 33.1929 53.6342 33.668C53.802 34.1431 54.1096 34.4646 54.5572 34.6322C55.0327 34.7721 55.774 34.8419 56.781 34.8419H59.8438C61.2424 34.8419 62.3473 34.6183 63.1585 34.1711C63.9697 33.7238 64.5851 33.011 65.0047 32.0328C65.4242 31.0265 65.7179 29.629 65.8858 27.84H66.8508C66.7669 28.5947 66.7249 29.6009 66.7249 30.8589ZM57.2844 0C57.8999 1.09012 58.8649 2.13831 60.1795 3.14458C61.4942 4.12289 63.0046 4.91951 64.7109 5.53446L64.5012 6.12144C62.9068 5.75807 61.3263 5.31084 59.7599 4.77976C58.2215 4.24867 56.9908 3.71759 56.0677 3.1865C55.3125 3.71759 54.3054 4.24867 53.0467 4.77976C51.816 5.31084 50.5713 5.75807 49.3126 6.12144L49.1028 5.53446C50.8091 4.91951 52.3195 4.12289 53.6342 3.14458C54.9488 2.13831 55.9139 1.09012 56.5293 0H57.2844Z" fill="#486173"/>
<path d="M117.524 11.1528C116.545 11.2086 115.818 11.3624 115.342 11.614C114.867 11.8376 114.545 12.2289 114.377 12.7879C114.21 13.319 114.126 14.1157 114.126 15.1778V36.0159H113.161L96.3778 12.7879V30.9426C96.3778 32.0328 96.4617 32.8434 96.6294 33.3744C96.8248 33.9055 97.1887 34.2968 97.7204 34.5485C98.2514 34.7721 99.0768 34.9118 100.196 34.9677V35.8063C99.1889 35.7224 97.7623 35.6805 95.9162 35.6805C94.2379 35.6805 92.9373 35.7224 92.0142 35.8063V34.9677C92.993 34.9118 93.7199 34.7721 94.196 34.5485C94.6713 34.2968 94.9932 33.9055 95.161 33.3744C95.3288 32.8155 95.4128 32.0048 95.4128 30.9426V14.7585C95.4128 13.6964 95.3288 12.9277 95.161 12.4526C94.9932 11.9774 94.6713 11.6559 94.196 11.4882C93.7482 11.3205 93.0212 11.2086 92.0142 11.1528V10.3142C92.9373 10.3981 94.2379 10.44 95.9162 10.44C97.4266 10.44 98.7129 10.3981 99.7763 10.3142L113.161 28.9302V15.1778C113.161 14.0877 113.062 13.2771 112.867 12.7461C112.699 12.2149 112.349 11.8376 111.818 11.614C111.286 11.3624 110.461 11.2086 109.343 11.1528V10.3142C110.35 10.3981 111.776 10.44 113.622 10.44C115.301 10.44 116.601 10.3981 117.524 10.3142V11.1528Z" fill="#486173"/>
<path d="M152.169 11.1528C151.162 11.2086 150.42 11.3205 149.945 11.4882C149.498 11.6559 149.19 11.9774 149.021 12.4526C148.854 12.9277 148.77 13.6964 148.77 14.7585V31.3619C148.77 32.4241 148.854 33.1929 149.021 33.668C149.19 34.1431 149.498 34.4646 149.945 34.6322C150.42 34.8 151.162 34.9118 152.169 34.9677V35.8063C150.882 35.7224 149.106 35.6805 146.84 35.6805C144.434 35.6805 142.645 35.7224 141.47 35.8063V34.9677C142.476 34.9118 143.203 34.8 143.651 34.6322C144.127 34.4646 144.449 34.1431 144.616 33.668C144.784 33.1929 144.868 32.4241 144.868 31.3619V14.7585C144.868 13.6964 144.784 12.9277 144.616 12.4526C144.449 11.9774 144.127 11.6559 143.651 11.4882C143.203 11.3205 142.476 11.2086 141.47 11.1528V10.3142C142.645 10.3981 144.434 10.44 146.84 10.44C149.078 10.44 150.855 10.3981 152.169 10.3142V11.1528Z" fill="#486173"/>
<path d="M197.561 32.8294C198.092 33.5841 198.541 34.1012 198.904 34.3807C199.268 34.6603 199.687 34.8419 200.162 34.9257V35.8063C198.904 35.7224 197.771 35.6805 196.763 35.6805C195.085 35.6805 193.113 35.7224 190.847 35.8063V34.9257C191.771 34.9257 192.442 34.8699 192.862 34.7581C193.281 34.6462 193.491 34.4646 193.491 34.213C193.491 34.0453 193.378 33.8077 193.155 33.5002L186.61 24.5277L181.323 31.4457C180.848 32.0886 180.609 32.7037 180.609 33.2906C180.609 33.7937 180.82 34.199 181.24 34.5065C181.659 34.814 182.288 34.9677 183.127 34.9677V35.8063C181.533 35.7224 179.952 35.6805 178.386 35.6805C178.078 35.6805 177.56 35.7084 176.834 35.7643L175.575 35.8063V34.9677C176.163 34.9118 176.834 34.6183 177.589 34.0872C178.373 33.5282 179.029 32.8853 179.561 32.1585L186.022 23.7311L178.428 13.2911C177.812 12.4526 177.352 11.9075 177.044 11.6559C176.736 11.3764 176.33 11.2227 175.827 11.1947V10.3142C177.085 10.3981 178.219 10.44 179.225 10.44C180.904 10.44 182.875 10.3981 185.141 10.3142V11.1947C184.218 11.1947 183.547 11.2506 183.127 11.3624C182.708 11.4742 182.498 11.6559 182.498 11.9075C182.498 12.0752 182.61 12.3128 182.834 12.6202L188.96 21.0057L193.868 14.6328C194.343 14.0178 194.582 13.4308 194.582 12.8718C194.582 12.3687 194.358 11.9633 193.911 11.6559C193.463 11.3205 192.806 11.1528 191.938 11.1528V10.3142C193.532 10.3981 195.113 10.44 196.68 10.44C197.882 10.44 198.819 10.3981 199.491 10.3142V11.1528C198.875 11.2086 198.204 11.4882 197.477 11.9913C196.777 12.4944 196.106 13.1653 195.462 14.0039L189.463 21.7605L197.561 32.8294Z" fill="#486173"/>
<path d="M6.49762 50.4491C6.43685 51.065 6.40647 51.6202 6.40647 52.1146C6.40647 52.5484 6.41949 52.9041 6.44553 53.1817H6.14604C6.0766 52.5137 5.98978 52.0193 5.88562 51.6983C5.78145 51.3687 5.59915 51.1302 5.33873 50.9826C5.07829 50.8265 4.67898 50.7484 4.14076 50.7484H3.32042C3.00791 50.7484 2.77787 50.7744 2.63029 50.8265C2.4914 50.8698 2.39591 50.9653 2.34383 51.1128C2.29175 51.2602 2.26571 51.4987 2.26571 51.8284V55.0294H3.21625C3.52009 55.0294 3.75447 54.96 3.9194 54.8211C4.08434 54.6737 4.19285 54.5046 4.24493 54.3137C4.30571 54.1142 4.35345 53.867 4.38817 53.572L4.42724 53.3118H4.72673C4.70069 53.6761 4.68766 54.0839 4.68766 54.535V55.1595C4.68766 55.6019 4.71371 56.2178 4.76578 57.0072H4.46629C4.45762 56.9465 4.43158 56.7383 4.38817 56.3826C4.34476 56.0183 4.22324 55.745 4.02358 55.5629C3.8326 55.3807 3.56349 55.2896 3.21625 55.2896H2.26571V58.2824C2.26571 58.612 2.30042 58.8506 2.36987 58.998C2.43931 59.1456 2.56085 59.2453 2.73447 59.2974C2.90809 59.3494 3.19022 59.3841 3.58085 59.4015V59.6617C3.12945 59.6356 2.4914 59.6226 1.66673 59.6226C0.920171 59.6226 0.364596 59.6356 0 59.6617V59.4015C0.312511 59.3841 0.538213 59.3494 0.677106 59.2974C0.82468 59.2453 0.924511 59.1456 0.976596 58.998C1.02868 58.8506 1.05472 58.612 1.05472 58.2824V51.8284C1.05472 51.4987 1.02868 51.2602 0.976596 51.1128C0.924511 50.9653 0.82468 50.8655 0.677106 50.8135C0.538213 50.7615 0.312511 50.7267 0 50.7094V50.4491C0.850723 50.4752 2.10945 50.4882 3.77617 50.4882C5.05225 50.4882 5.9594 50.4752 6.49762 50.4491Z" fill="#486173"/>
<path d="M31.9716 52.0106C31.6678 52.028 31.4421 52.0757 31.2945 52.1537C31.1469 52.2231 31.0471 52.3446 30.995 52.5181C30.9429 52.6829 30.9169 52.9302 30.9169 53.2598V56.1355C30.9169 56.734 30.8734 57.2457 30.7867 57.6709C30.7085 58.0872 30.574 58.4516 30.383 58.7639C30.1747 59.0935 29.8709 59.3581 29.4716 59.5576C29.0809 59.7485 28.6338 59.8439 28.1303 59.8439C27.2362 59.8439 26.5505 59.6531 26.0729 59.2713C25.691 58.933 25.4349 58.547 25.3047 58.1133C25.1745 57.6796 25.1094 57.0333 25.1094 56.1744V53.1296C25.1094 52.8 25.0834 52.5615 25.0312 52.414C24.9792 52.2665 24.8794 52.1668 24.7318 52.1148C24.5929 52.0627 24.3672 52.028 24.0547 52.0106V51.7504C24.4192 51.7764 24.9748 51.7894 25.7214 51.7894C26.4158 51.7894 26.9671 51.7764 27.3751 51.7504V52.0106C27.0625 52.028 26.8325 52.0627 26.6849 52.1148C26.5461 52.1668 26.4505 52.2665 26.3985 52.414C26.3465 52.5615 26.3203 52.8 26.3203 53.1296V56.3957C26.3203 57.0376 26.3638 57.5711 26.4505 57.9961C26.5374 58.4126 26.7196 58.7509 26.9974 59.0111C27.2839 59.2627 27.7007 59.3885 28.2476 59.3885C29.1156 59.3885 29.7276 59.1152 30.0836 58.5687C30.4394 58.0222 30.6174 57.2589 30.6174 56.2785V53.2598C30.6174 52.7913 30.5305 52.4704 30.3569 52.2969C30.192 52.1233 29.8838 52.028 29.4325 52.0106V51.7504C29.7449 51.7764 30.1876 51.7894 30.7607 51.7894C31.2814 51.7894 31.6851 51.7764 31.9716 51.7504V52.0106Z" fill="#486173"/>
<path d="M57.6261 52.0106C57.3223 52.028 57.0966 52.0757 56.949 52.1537C56.8015 52.2231 56.7017 52.3446 56.6495 52.5181C56.5975 52.6829 56.5714 52.9302 56.5714 53.2598V59.7268H56.2719L51.0634 52.5181V58.1524C51.0634 58.4906 51.0895 58.7422 51.1415 58.907C51.2023 59.0718 51.3151 59.1933 51.4801 59.2713C51.645 59.3407 51.9011 59.3841 52.2484 59.4015V59.6617C51.9358 59.6357 51.4931 59.6227 50.9202 59.6227C50.3993 59.6227 49.9957 59.6357 49.7092 59.6617V59.4015C50.013 59.3841 50.2388 59.3407 50.3863 59.2713C50.5339 59.1933 50.6337 59.0718 50.6857 58.907C50.7379 58.7335 50.7639 58.482 50.7639 58.1524V53.1296C50.7639 52.8 50.7379 52.5615 50.6857 52.414C50.6337 52.2665 50.5339 52.1668 50.3863 52.1148C50.2474 52.0627 50.0217 52.028 49.7092 52.0106V51.7504C49.9957 51.7764 50.3993 51.7894 50.9202 51.7894C51.3889 51.7894 51.7882 51.7764 52.1181 51.7504L56.2719 57.5278V53.2598C56.2719 52.9215 56.2415 52.67 56.1808 52.5051C56.1286 52.3403 56.0202 52.2231 55.8552 52.1537C55.6903 52.0757 55.4342 52.028 55.087 52.0106V51.7504C55.3995 51.7764 55.8422 51.7894 56.4151 51.7894C56.936 51.7894 57.3397 51.7764 57.6261 51.7504V52.0106Z" fill="#486173"/>
<path d="M81.8163 58.1263C81.8163 58.5774 81.8465 59.0892 81.9074 59.6617C81.3431 59.6357 80.3925 59.6227 79.0557 59.6227C77.4497 59.6227 76.2343 59.6357 75.4097 59.6617V59.4015C75.7223 59.3841 75.9473 59.3494 76.0862 59.2974C76.2337 59.2453 76.3335 59.1456 76.3856 58.9981C76.4377 58.8506 76.4645 58.612 76.4645 58.2824V53.1296C76.4645 52.8 76.4377 52.5615 76.3856 52.414C76.3335 52.2665 76.2337 52.1668 76.0862 52.1148C75.9473 52.0627 75.7223 52.028 75.4097 52.0106V51.7504C76.2343 51.7764 77.4497 51.7894 79.0557 51.7894C80.271 51.7894 81.1347 51.7764 81.6469 51.7504C81.5861 52.2709 81.5558 52.7393 81.5558 53.1557C81.5558 53.494 81.5688 53.7629 81.5948 53.9624H81.2954C81.2345 53.2511 81.082 52.7567 80.8389 52.4791C80.6045 52.1928 80.2182 52.0496 79.68 52.0496H78.7301C78.4176 52.0496 78.1876 52.0757 78.0401 52.1278C77.9012 52.1711 77.8049 52.2665 77.7529 52.414C77.7007 52.5615 77.6754 52.8 77.6754 53.1296V55.55H78.7555C79.0333 55.55 79.2467 55.4805 79.3943 55.3417C79.5418 55.1942 79.6409 55.0381 79.6931 54.8733C79.7451 54.6998 79.7936 54.4829 79.837 54.2227H80.1365C80.1105 54.5176 80.0974 54.8385 80.0974 55.1856V55.68C80.0974 56.0183 80.1227 56.5041 80.1748 57.1374H79.8761C79.8239 56.7209 79.7241 56.3957 79.5765 56.1615C79.429 55.9272 79.1548 55.8102 78.7555 55.8102H77.6754V58.2824C77.6754 58.612 77.7007 58.8506 77.7529 58.9981C77.8049 59.1456 77.9012 59.2453 78.0401 59.2974C78.1876 59.3407 78.4176 59.3624 78.7301 59.3624H79.68C80.114 59.3624 80.4576 59.2931 80.7094 59.1542C80.9612 59.0155 81.1521 58.7942 81.2823 58.4906C81.4125 58.1783 81.5037 57.7446 81.5558 57.1894H81.8552C81.8292 57.4237 81.8163 57.7359 81.8163 58.1263Z" fill="#486173"/>
<path d="M107.699 59.1152C107.534 59.3494 107.343 59.5316 107.126 59.6617C106.918 59.7831 106.666 59.8439 106.371 59.8439C105.642 59.8439 105.195 59.5142 105.03 58.855L104.626 57.2285C104.505 56.7427 104.322 56.4174 104.079 56.2526C103.845 56.0878 103.493 56.0053 103.025 56.0053H102.282V58.2824C102.282 58.612 102.308 58.8506 102.36 58.9981C102.413 59.1455 102.508 59.2453 102.647 59.2974C102.795 59.3494 103.025 59.3841 103.337 59.4015V59.6617C102.938 59.6357 102.387 59.6227 101.683 59.6227C100.937 59.6227 100.381 59.6357 100.017 59.6617V59.4015C100.329 59.3841 100.555 59.3494 100.694 59.2974C100.841 59.2453 100.941 59.1455 100.993 58.9981C101.045 58.8506 101.071 58.612 101.071 58.2824V53.1296C101.071 52.8 101.045 52.5615 100.993 52.414C100.941 52.2665 100.841 52.1668 100.694 52.1148C100.555 52.0627 100.329 52.028 100.017 52.0106V51.7504C100.381 51.7764 100.911 51.7894 101.605 51.7894L102.933 51.7764C103.081 51.7678 103.25 51.7633 103.441 51.7633C104.413 51.7633 105.156 51.9456 105.668 52.31C106.189 52.6742 106.449 53.147 106.449 53.7282C106.449 54.2313 106.245 54.6911 105.837 55.1075C105.438 55.5239 104.778 55.7885 103.858 55.9013C104.031 55.9185 104.179 55.9359 104.301 55.9533C104.761 56.0227 105.125 56.1615 105.394 56.3696C105.663 56.5779 105.855 56.9118 105.967 57.3716L106.254 58.5557C106.323 58.8593 106.397 59.0761 106.475 59.2063C106.562 59.3277 106.671 59.3885 106.801 59.3885C107.018 59.3885 107.256 59.2409 107.517 58.9461L107.699 59.1152ZM103.116 52.0106C102.881 52.0106 102.703 52.0409 102.582 52.1017C102.469 52.1624 102.391 52.2709 102.347 52.427C102.304 52.5831 102.282 52.8174 102.282 53.1296V55.7451H103.155C103.919 55.7451 104.439 55.5846 104.717 55.2637C105.004 54.934 105.147 54.47 105.147 53.8713C105.147 53.2468 104.986 52.7827 104.665 52.4791C104.353 52.1668 103.836 52.0106 103.116 52.0106Z" fill="#486173"/>
<path d="M131.619 58.5687C131.854 59.1065 132.153 59.3841 132.517 59.4015V59.6617C132.17 59.6357 131.706 59.6226 131.124 59.6226C130.378 59.6226 129.822 59.6357 129.457 59.6617V59.4015C129.778 59.3841 130.013 59.3407 130.161 59.2713C130.317 59.2019 130.395 59.0848 130.395 58.92C130.395 58.7813 130.334 58.5774 130.213 58.3085L129.549 56.825H126.385L125.941 57.8009C125.795 58.1393 125.72 58.4169 125.72 58.6337C125.72 58.8593 125.798 59.0371 125.955 59.1672C126.12 59.2887 126.38 59.3667 126.736 59.4015V59.6617C126.475 59.6357 126.081 59.6226 125.552 59.6226C125.021 59.6226 124.644 59.6357 124.418 59.6617V59.4015C124.653 59.3407 124.853 59.2106 125.018 59.0111C125.183 58.8029 125.339 58.5296 125.486 58.1913L128.364 51.6853H128.572L131.619 58.5687ZM129.445 56.5648L127.973 53.2598L126.489 56.5648H129.445ZM129.731 48.4453C129.87 48.3585 130 48.3152 130.121 48.3152C130.286 48.3152 130.421 48.3889 130.526 48.5363C130.577 48.6144 130.604 48.6969 130.604 48.7837C130.604 48.9744 130.487 49.1437 130.252 49.2911C130.069 49.4039 129.757 49.5426 129.314 49.7074C128.663 49.9678 128.103 50.215 127.634 50.4491L127.544 50.28C127.899 50.0111 128.204 49.7639 128.455 49.5383C128.715 49.3041 128.875 49.1609 128.937 49.1089C129.258 48.8053 129.523 48.5841 129.731 48.4453Z" fill="#486173"/>
<path d="M157.573 59.1152C157.409 59.3494 157.217 59.5316 157.001 59.6617C156.792 59.7831 156.54 59.8439 156.246 59.8439C155.516 59.8439 155.069 59.5142 154.904 58.855L154.5 57.2285C154.379 56.7427 154.196 56.4174 153.953 56.2526C153.719 56.0878 153.368 56.0053 152.899 56.0053H152.156V58.2824C152.156 58.612 152.183 58.8506 152.234 58.9981C152.287 59.1455 152.382 59.2453 152.521 59.2974C152.669 59.3494 152.899 59.3841 153.211 59.4015V59.6617C152.812 59.6357 152.261 59.6227 151.557 59.6227C150.811 59.6227 150.255 59.6357 149.891 59.6617V59.4015C150.204 59.3841 150.429 59.3494 150.568 59.2974C150.716 59.2453 150.816 59.1455 150.867 58.9981C150.92 58.8506 150.945 58.612 150.945 58.2824V53.1296C150.945 52.8 150.92 52.5615 150.867 52.414C150.816 52.2665 150.716 52.1668 150.568 52.1148C150.429 52.0627 150.204 52.028 149.891 52.0106V51.7504C150.255 51.7764 150.785 51.7894 151.479 51.7894L152.807 51.7764C152.955 51.7678 153.125 51.7633 153.315 51.7633C154.287 51.7633 155.03 51.9456 155.542 52.31C156.062 52.6742 156.324 53.147 156.324 53.7282C156.324 54.2313 156.12 54.6911 155.712 55.1075C155.312 55.5239 154.653 55.7885 153.732 55.9013C153.905 55.9185 154.053 55.9359 154.175 55.9533C154.634 56.0227 155 56.1615 155.268 56.3696C155.537 56.5779 155.729 56.9118 155.841 57.3716L156.128 58.5557C156.197 58.8593 156.271 59.0761 156.349 59.2063C156.436 59.3277 156.545 59.3885 156.674 59.3885C156.892 59.3885 157.13 59.2409 157.391 58.9461L157.573 59.1152ZM152.99 52.0106C152.756 52.0106 152.577 52.0409 152.456 52.1017C152.343 52.1624 152.265 52.2709 152.222 52.427C152.178 52.5831 152.156 52.8174 152.156 53.1296V55.7451H153.029C153.793 55.7451 154.313 55.5846 154.592 55.2637C154.878 54.934 155.022 54.47 155.022 53.8713C155.022 53.2468 154.86 52.7827 154.539 52.4791C154.226 52.1668 153.711 52.0106 152.99 52.0106Z" fill="#486173"/>
<path d="M178.199 52.0106C177.887 52.028 177.657 52.0627 177.509 52.1148C177.37 52.1668 177.275 52.2665 177.222 52.414C177.171 52.5615 177.144 52.8 177.144 53.1296V58.2824C177.144 58.612 177.171 58.8506 177.222 58.9981C177.275 59.1456 177.37 59.2453 177.509 59.2974C177.657 59.3494 177.887 59.3841 178.199 59.4015V59.6617C177.8 59.6357 177.249 59.6227 176.545 59.6227C175.799 59.6227 175.243 59.6357 174.878 59.6617V59.4015C175.191 59.3841 175.417 59.3494 175.556 59.2974C175.704 59.2453 175.803 59.1456 175.855 58.9981C175.908 58.8506 175.933 58.612 175.933 58.2824V53.1296C175.933 52.8 175.908 52.5615 175.855 52.414C175.803 52.2665 175.704 52.1668 175.556 52.1148C175.417 52.0627 175.191 52.028 174.878 52.0106V51.7504C175.243 51.7764 175.799 51.7894 176.545 51.7894C177.239 51.7894 177.791 51.7764 178.199 51.7504V52.0106Z" fill="#486173"/>
<path d="M202.769 58.5688C203.003 59.1066 203.303 59.3842 203.668 59.4015V59.6618C203.32 59.6358 202.855 59.6227 202.274 59.6227C201.528 59.6227 200.972 59.6358 200.608 59.6618V59.4015C200.928 59.3842 201.162 59.3408 201.31 59.2714C201.467 59.202 201.545 59.0849 201.545 58.9201C201.545 58.7812 201.484 58.5775 201.363 58.3086L200.698 56.8251H197.534L197.091 57.801C196.944 58.1393 196.87 58.4169 196.87 58.6338C196.87 58.8593 196.948 59.0371 197.104 59.1673C197.269 59.2888 197.529 59.3668 197.886 59.4015V59.6618C197.626 59.6358 197.23 59.6227 196.701 59.6227C196.171 59.6227 195.794 59.6358 195.568 59.6618V59.4015C195.802 59.3408 196.002 59.2106 196.167 59.0112C196.332 58.803 196.489 58.5297 196.635 58.1914L199.513 51.6854H199.722L202.769 58.5688ZM200.594 56.5649L199.122 53.2599L197.638 56.5649H200.594Z" fill="#486173"/>
</svg>
