<svg width="133" height="133" viewBox="0 0 133 133" fill="none" xmlns="http://www.w3.org/2000/svg">
<path d="M102.93 23.7929C85.9487 23.7929 72.5407 37.5608 72.5407 54.5417C72.5407 71.5226 86.4871 85.2905 103.468 85.2905C103.638 85.2905 103.894 85.2674 104.064 85.2646C97.3499 90.6111 88.917 93.8328 79.6866 93.8328C75.4399 93.8328 72.0225 97.2762 72.0225 101.52C72.0225 105.764 74.7547 109.207 79.0014 109.207C109.143 109.204 132.959 84.683 132.959 54.5417C132.959 54.5359 132.959 54.5302 132.959 54.5215C132.959 37.5492 119.905 23.7929 102.93 23.7929Z" fill="#C2B37E" fill-opacity="0.2"/>
<path d="M30.9503 23.7929C13.9694 23.7929 0.538392 37.5608 0.538392 54.5417C0.538392 71.5226 14.4732 85.2905 31.457 85.2905C31.6269 85.2905 31.8774 85.2674 32.0473 85.2646C25.3332 90.6111 16.8974 93.8328 7.66704 93.8328C3.42037 93.8328 0 97.2762 0 101.52C0 105.764 2.77545 109.207 7.02212 109.207C37.1634 109.204 61.0225 84.683 61.0225 54.5417C61.0225 54.5359 61.0225 54.5302 61.0225 54.5215C61.0225 37.5492 47.9255 23.7929 30.9503 23.7929Z" fill="#C2B37E" fill-opacity="0.2"/>
</svg>
